<svg width="14" height="15" viewBox="0 0 14 15" fill="none" xmlns="http://www.w3.org/2000/svg">
<path d="M7 9.25C7.9665 9.25 8.75 8.4665 8.75 7.5C8.75 6.5335 7.9665 5.75 7 5.75C6.0335 5.75 5.25 6.5335 5.25 7.5C5.25 8.4665 6.0335 9.25 7 9.25Z" fill="#343A40"/>
<path d="M13.4214 7.02422C12.6979 5.90531 11.7592 4.95484 10.707 4.27535C9.54296 3.52285 8.25781 3.125 6.9907 3.125C5.82804 3.125 4.6848 3.45723 3.59269 4.11238C2.47898 4.78039 1.47 5.75629 0.593629 7.01273C0.494695 7.15473 0.440208 7.32294 0.437092 7.49597C0.433976 7.66901 0.482372 7.83906 0.576129 7.98453C1.29828 9.11465 2.22769 10.0665 3.26347 10.7367C4.42968 11.4922 5.68476 11.875 6.9907 11.875C8.26793 11.875 9.55582 11.4804 10.7149 10.7342C11.7666 10.0569 12.7034 9.10289 13.4241 7.97469C13.5147 7.8326 13.5625 7.66753 13.562 7.49905C13.5616 7.33058 13.5127 7.16578 13.4214 7.02422ZM7 10.125C6.48082 10.125 5.9733 9.97105 5.54162 9.68261C5.10994 9.39417 4.77349 8.9842 4.57481 8.50454C4.37613 8.02489 4.32415 7.49709 4.42543 6.98789C4.52672 6.47869 4.77673 6.01096 5.14384 5.64384C5.51095 5.27673 5.97868 5.02673 6.48788 4.92544C6.99708 4.82415 7.52488 4.87614 8.00454 5.07482C8.4842 5.2735 8.89417 5.60995 9.1826 6.04163C9.47104 6.47331 9.625 6.98082 9.625 7.5C9.6242 8.19595 9.34738 8.86317 8.85527 9.35528C8.36316 9.84739 7.69594 10.1242 7 10.125Z" fill="#343A40"/>
</svg>
