<svg width="60" height="60" viewBox="0 0 60 60" fill="none" xmlns="http://www.w3.org/2000/svg">
<g clip-path="url(#clip0_19_198)">
<path d="M29.9998 4.17969C44.3298 4.17969 55.9898 15.7597 55.9898 29.9997C55.9898 44.2397 44.3298 55.8197 29.9998 55.8197C15.6698 55.8197 4.00977 44.2397 4.00977 29.9997C4.00977 15.7597 15.6698 4.17969 29.9998 4.17969ZM29.9998 0.179688C13.4398 0.179688 0.00976562 13.5297 0.00976562 29.9997C0.00976562 46.4697 13.4398 59.8197 29.9998 59.8197C46.5598 59.8197 59.9898 46.4697 59.9898 29.9997C59.9898 13.5297 46.5598 0.179688 29.9998 0.179688Z" fill="#1BB177"/>
<path d="M23.8497 43.2894L13.6797 33.1794L16.4997 30.3394L23.8497 37.6494L43.4997 18.1094L46.3197 20.9494L23.8497 43.2894Z" fill="#1BB177"/>
</g>
<defs>
<clipPath id="clip0_19_198">
<rect width="60" height="60" fill="white"/>
</clipPath>
</defs>
</svg>
