<svg id="ico_coaching_note_01" xmlns="http://www.w3.org/2000/svg" width="24" height="24" viewBox="0 0 24 24">
  <path id="path" d="M6.8,21a1,1,0,0,1-.994-1.112l.587-5.222L2.85,10.786a1,1,0,0,1,.537-1.654L8.535,8.075l2.6-4.569a1.04,1.04,0,0,1,1.738,0l2.6,4.569,5.148,1.057a1,1,0,0,1,.537,1.654l-3.544,3.88.587,5.222a1,1,0,0,1-1.408,1.022L12,18.739,7.214,20.91A1,1,0,0,1,6.8,21M5.514,10.737l2.663,2.914a1,1,0,0,1,.256.786l-.441,3.924,3.595-1.631a1,1,0,0,1,.826,0l3.595,1.631-.44-3.924a1,1,0,0,1,.256-.786l2.662-2.914-3.868-.794a1,1,0,0,1-.667-.485L12,6.024,10.05,9.458a1,1,0,0,1-.668.485Z" fill="#010000"/>
  <rect id="bg" width="24" height="24" fill="none"/>
</svg>
