<svg id="ico_coaching_chat_02" xmlns="http://www.w3.org/2000/svg" width="24" height="24" viewBox="0 0 24 24">
  <rect id="quad1" width="24" height="24" fill="none"/>
  <path id="path1" d="M5.351,2.045h-2.4l.291,8.228H5.351l.291-8.228Z"/>
  <rect id="quad2" width="2.105" height="2.105" transform="translate(3.246 11.498)"/>
  <path id="path2" d="M17.246,20a1.9,1.9,0,0,1-.76-.15,3.475,3.475,0,0,1-1.71-2.38,5.853,5.853,0,0,0-2.365-2.981l-.025-.019-.01-.008a7.582,7.582,0,0,1-2.31-2.522A6.264,6.264,0,0,1,9.246,9a5,5,0,1,1,10,0h2a6.92,6.92,0,0,0-7-7,6.92,6.92,0,0,0-7,7,8.278,8.278,0,0,0,1.07,3.9,9.533,9.533,0,0,0,2.85,3.15,4.028,4.028,0,0,1,1.71,2.05,5.443,5.443,0,0,0,2.73,3.55A4,4,0,0,0,21.246,18h-2a2.006,2.006,0,0,1-2,2Z" fill-rule="evenodd"/>
  <circle id="circle" cx="2.502" cy="2.502" r="2.502" transform="translate(11.741 6.504)"/>
</svg>
